<svg xmlns="http://www.w3.org/2000/svg" version="1.1" xmlns:xlink="http://www.w3.org/1999/xlink" xmlns:svgjs="http://svgjs.com/svgjs" width="512" height="512" x="0" y="0" viewBox="0 0 512.001 512.001" style="enable-background:new 0 0 512 512" xml:space="preserve" class=""><g><path d="M167.228 82.855v272.542c-15.859-14.147-36.757-22.76-59.632-22.76-49.45 0-89.681 40.231-89.681 89.682s40.231 89.682 89.681 89.682c49.389 0 89.578-40.13 89.68-89.495h.002V203.475l266.757-67.621v147.195c-15.859-14.147-36.757-22.76-59.631-22.76-49.451 0-89.682 40.231-89.682 89.681 0 49.451 40.231 89.682 89.682 89.682 49.45 0 89.681-40.232 89.681-89.682V0L167.228 82.855z" fill="#ffffff" data-original="#000000" opacity="1"></path></g></svg>